<?xml version="1.0" standalone="no"?>
<!DOCTYPE svg PUBLIC "-//W3C//DTD SVG 20010904//EN"
 "http://www.w3.org/TR/2001/REC-SVG-20010904/DTD/svg10.dtd">
<svg version="1.0" xmlns="http://www.w3.org/2000/svg"
 width="800.000000pt" height="800.000000pt" viewBox="0 0 800.000000 800.000000"
 preserveAspectRatio="xMidYMid meet">
<metadata>
Created by potrace 1.11, written by Peter Selinger 2001-2013
</metadata>
<g transform="translate(0.000000,800.000000) scale(0.100000,-0.100000)"
fill="#000000" stroke="none">
<path d="M3779 7996 c-2 -2 -47 -6 -99 -10 -85 -6 -125 -11 -140 -16 -3 -1
-15 -1 -27 0 -13 1 -28 -2 -34 -5 -6 -4 -36 -9 -67 -11 -30 -2 -59 -8 -62 -15
-5 -6 -10 -7 -13 -2 -4 6 -25 6 -56 -1 -27 -5 -48 -12 -46 -15 2 -3 -11 -6
-28 -7 -18 0 -48 -4 -67 -8 -58 -12 -233 -56 -260 -65 -14 -5 -77 -26 -140
-47 -63 -20 -117 -40 -120 -43 -3 -3 -9 -6 -15 -7 -25 -1 -64 -17 -60 -24 3
-4 -1 -8 -8 -7 -29 1 -48 -4 -44 -10 3 -5 -5 -9 -16 -10 -19 -1 -83 -28 -244
-105 -24 -11 -43 -24 -43 -29 0 -6 -4 -8 -10 -4 -8 5 -45 -10 -60 -25 -3 -3
-34 -20 -70 -39 -36 -18 -70 -39 -75 -45 -6 -6 -17 -12 -25 -14 -8 -2 -22 -9
-30 -16 -8 -7 -34 -23 -57 -36 -23 -13 -40 -26 -38 -30 3 -4 -3 -7 -13 -6 -9
0 -16 -4 -15 -10 1 -6 -4 -11 -11 -11 -20 0 -195 -127 -189 -137 4 -5 1 -6 -5
-2 -6 3 -26 -9 -46 -28 -20 -18 -36 -31 -36 -29 0 2 -20 -12 -45 -32 -25 -21
-42 -42 -38 -49 3 -6 3 -8 -2 -4 -11 11 -47 -11 -39 -24 4 -6 3 -8 -3 -5 -6 4
-25 -9 -42 -28 -17 -19 -34 -36 -38 -38 -5 -1 -7 -6 -5 -10 1 -5 -2 -6 -6 -3
-12 7 -44 -28 -35 -38 5 -4 1 -6 -7 -4 -8 2 -14 -3 -12 -10 1 -8 -1 -11 -6 -8
-12 7 -134 -118 -125 -128 4 -4 3 -6 -2 -5 -18 6 -173 -83 -262 -150 -298
-224 -479 -541 -508 -891 -9 -114 -14 -139 -30 -171 -9 -16 -13 -35 -9 -41 4
-6 3 -8 -3 -5 -13 8 -27 -39 -17 -55 4 -7 3 -8 -4 -4 -7 4 -12 6 -12 4 0 -2
-20 -64 -45 -138 -25 -74 -43 -140 -40 -147 2 -8 1 -12 -4 -9 -11 7 -24 -41
-16 -54 4 -6 2 -10 -3 -10 -6 0 -13 -17 -17 -37 -12 -56 -11 -54 -28 -110 -10
-33 -12 -53 -6 -53 6 0 3 -7 -6 -16 -13 -14 -14 -19 -3 -25 8 -6 9 -9 2 -9
-13 0 -28 -72 -29 -132 0 -20 -4 -34 -9 -31 -5 3 -7 -10 -4 -30 2 -20 1 -34
-3 -31 -9 5 -22 -103 -15 -115 4 -5 3 -12 -2 -15 -4 -2 -9 -22 -10 -42 -2 -21
-5 -40 -7 -42 -2 -3 0 -14 6 -25 7 -13 7 -17 1 -13 -7 4 -11 -14 -11 -49 0
-30 -3 -64 -6 -76 -5 -15 -4 -19 4 -15 6 4 11 2 11 -3 0 -6 -4 -11 -10 -11 -8
0 -9 -140 -1 -473 1 -32 5 -46 12 -41 8 4 8 1 2 -12 -10 -20 7 -201 18 -190 3
3 4 -8 1 -24 -2 -17 1 -37 8 -45 7 -8 8 -15 3 -15 -6 0 -4 -25 3 -62 8 -35 14
-73 14 -86 0 -15 4 -21 12 -16 7 4 8 3 4 -4 -9 -15 15 -143 26 -136 4 3 5 -2
2 -11 -8 -19 4 -67 14 -61 5 3 6 -9 4 -26 -3 -21 -1 -29 7 -24 6 4 9 2 6 -6
-7 -20 30 -140 40 -131 4 4 5 3 1 -4 -8 -15 3 -65 14 -58 4 3 8 -1 7 -8 -1
-39 4 -58 15 -51 7 4 8 3 4 -5 -8 -12 14 -81 26 -81 4 0 5 -7 2 -15 -4 -8 -1
-15 6 -15 6 0 9 -4 6 -9 -5 -8 2 -28 54 -146 10 -22 28 -64 40 -93 l23 -54
-21 -41 c-22 -44 -36 -69 -145 -257 -37 -63 -67 -118 -67 -121 0 -11 122 -130
215 -209 47 -40 194 -143 260 -182 74 -44 268 -140 315 -155 96 -32 128 -47
161 -79 19 -19 39 -31 44 -27 4 5 5 3 2 -3 -8 -14 56 -77 68 -67 4 5 5 3 2 -3
-8 -14 36 -57 47 -47 4 5 6 3 4 -3 -4 -12 92 -103 110 -104 6 0 11 -4 10 -9
-4 -13 83 -82 94 -74 6 3 8 1 5 -4 -8 -13 82 -85 95 -77 4 3 7 1 6 -4 -2 -5
18 -25 45 -45 26 -20 47 -34 47 -30 0 4 7 -2 15 -13 8 -10 15 -16 15 -12 0 5
9 -1 20 -12 12 -12 26 -18 32 -14 6 4 8 3 5 -3 -5 -8 53 -51 61 -45 1 1 11 -7
22 -18 12 -12 26 -18 32 -14 6 4 8 3 4 -4 -6 -10 30 -28 47 -24 5 1 6 -1 3 -6
-6 -10 133 -88 152 -86 7 1 11 -1 8 -4 -8 -7 52 -43 75 -45 10 -1 16 -3 13 -6
-7 -7 70 -40 80 -34 5 4 6 1 2 -5 -4 -7 -3 -12 3 -12 6 0 38 -13 73 -29 157
-72 180 -81 189 -76 5 4 9 1 9 -5 0 -7 7 -9 16 -6 8 3 13 2 9 -3 -3 -5 9 -13
27 -16 18 -4 38 -11 43 -15 11 -8 62 -23 81 -25 6 0 18 -5 25 -11 8 -6 25 -14
39 -17 14 -3 41 -10 60 -15 145 -41 192 -52 202 -46 6 4 8 3 5 -3 -8 -12 69
-27 85 -17 7 4 8 2 4 -4 -7 -12 -4 -13 54 -16 14 0 27 -4 30 -8 3 -3 28 -8 55
-10 28 -2 52 -6 55 -10 3 -4 35 -9 70 -12 36 -2 72 -6 80 -9 37 -12 60 -14 66
-6 3 6 10 6 17 1 19 -14 54 -20 68 -11 7 4 18 5 24 1 5 -3 17 -8 25 -10 33 -7
531 -11 527 -4 -3 4 27 7 66 7 87 0 235 13 249 21 5 3 35 8 66 10 30 2 59 8
62 15 5 6 10 7 13 2 4 -6 25 -6 56 1 27 5 48 12 46 15 -2 3 11 6 28 7 39 1 71
7 219 44 65 17 120 30 124 30 3 0 3 3 1 7 -3 5 11 9 31 10 19 1 38 5 41 10 6
8 14 10 49 16 9 1 22 5 27 8 6 3 36 14 67 24 31 10 54 23 51 28 -3 6 -2 7 4 4
12 -7 84 13 78 22 -2 4 4 7 13 8 29 2 96 30 100 42 2 6 7 9 12 6 12 -7 111 41
102 50 -4 5 -2 5 5 1 12 -6 52 10 64 27 3 5 9 8 13 8 20 -3 26 0 20 12 -4 6
-4 9 1 5 4 -4 45 12 89 36 119 64 147 82 138 91 -4 5 -2 5 5 1 13 -7 137 67
127 76 -3 3 3 5 13 4 10 0 17 4 16 10 -1 6 4 11 10 11 17 0 67 33 67 45 0 5 3
7 8 4 11 -6 83 50 74 58 -4 4 -2 6 3 5 17 -5 56 21 49 33 -4 7 -3 8 4 4 14 -8
53 24 45 37 -3 6 -2 7 4 4 14 -9 55 22 47 35 -5 7 -2 8 6 3 7 -4 15 -4 19 1 3
5 32 31 63 58 32 26 55 53 51 59 -3 6 -1 7 5 3 13 -8 144 112 136 125 -3 5 0
8 8 7 7 -2 12 3 10 10 -1 8 1 11 6 8 9 -5 109 91 104 100 -2 3 0 9 4 12 4 4 4
0 -1 -8 -4 -8 17 12 48 45 30 33 53 63 51 66 -2 4 3 10 12 13 8 3 12 10 9 16
-3 6 1 7 9 4 15 -6 21 6 16 31 -1 6 2 7 5 3 8 -8 52 42 47 54 -1 5 2 8 8 8 5
0 28 26 51 57 24 32 47 61 52 64 5 4 6 13 2 20 -5 8 -5 11 0 7 11 -10 48 39
39 53 -4 7 -3 9 3 6 14 -9 161 215 155 236 -1 4 2 7 7 7 5 0 31 39 57 88 78
141 93 175 87 185 -3 6 -1 7 4 4 13 -8 26 20 16 35 -3 6 -1 8 4 5 9 -6 16 6
27 43 1 3 9 22 19 43 10 20 15 42 11 49 -4 6 -3 8 3 5 8 -5 66 117 68 143 0 3
4 11 8 18 5 6 5 17 2 22 -3 6 -2 10 3 10 7 0 32 63 36 90 1 3 8 25 17 50 38
103 56 167 55 192 -1 15 1 25 5 22 9 -5 20 56 12 69 -3 5 -2 7 4 4 5 -3 14 18
21 51 6 31 18 86 25 120 8 35 14 79 13 97 -1 18 3 31 8 28 5 -3 7 10 4 30 -2
20 -1 34 3 31 9 -5 22 103 14 116 -3 5 -1 10 4 10 6 0 9 10 7 23 -2 12 0 34 4
48 4 14 3 34 -2 44 -7 12 -7 16 0 11 7 -4 11 13 11 49 0 30 3 64 6 76 5 15 4
19 -4 15 -6 -4 -11 -2 -11 3 0 6 4 11 9 11 5 0 8 91 6 203 -3 301 -3 319 -16
311 -8 -4 -8 -1 -2 12 10 21 -8 200 -19 189 -4 -4 -4 1 -2 12 3 10 0 45 -6 78
-12 71 -16 100 -18 138 -1 16 -6 25 -12 22 -6 -3 -7 1 -4 9 3 9 3 24 -1 34 -4
9 -9 26 -10 37 -4 42 -17 95 -24 95 -3 0 -7 15 -8 33 -2 48 -48 198 -58 190
-4 -5 -5 -3 -1 4 8 15 -3 65 -14 58 -4 -3 -8 1 -7 8 1 39 -4 58 -15 51 -7 -4
-8 -3 -4 5 8 12 -14 81 -26 81 -4 0 -5 7 -2 15 4 8 2 15 -4 15 -5 0 -9 6 -8
13 2 23 -57 156 -67 150 -6 -3 -7 -1 -4 4 10 16 -13 74 -26 66 -6 -3 -7 -1 -3
5 8 14 -58 154 -69 144 -5 -4 -5 -2 -2 4 3 6 -5 33 -19 60 -15 30 -23 58 -19
74 2 14 7 39 9 55 3 17 12 71 20 120 8 50 17 108 20 130 7 51 17 114 22 140 2
11 7 40 10 65 3 25 7 52 9 60 3 8 7 33 10 55 4 22 8 52 11 68 2 15 6 42 9 60
3 17 10 60 16 95 6 35 9 66 5 69 -7 8 -517 6 -525 -2 -3 -4 -6 -14 -7 -23 0
-15 -6 -53 -20 -142 -2 -14 -6 -50 -10 -80 -3 -30 -11 -59 -16 -65 -8 -7 -9
-6 -5 1 8 14 -17 37 -28 26 -5 -4 -5 -2 -2 4 8 14 -27 56 -38 46 -5 -4 -6 -2
-2 3 7 13 -88 117 -98 107 -5 -4 -5 -2 -2 4 8 14 -36 57 -48 47 -4 -5 -5 -3
-2 3 8 14 -96 117 -108 107 -4 -5 -5 -3 -2 3 4 6 -21 35 -55 65 -33 30 -74 66
-90 81 -17 16 -35 25 -41 21 -5 -3 -7 -1 -3 5 8 13 -33 44 -47 35 -6 -3 -7 -1
-3 5 3 6 -8 21 -26 33 -18 13 -35 26 -38 29 -18 21 -64 49 -73 43 -5 -3 -7 -1
-3 5 6 10 -62 59 -77 54 -5 -1 -6 1 -3 6 3 5 -10 18 -29 28 -19 10 -35 21 -35
25 0 7 -54 33 -57 27 -1 -1 -8 4 -15 13 -7 9 -29 25 -48 35 -19 11 -37 22 -40
25 -17 18 -154 88 -163 82 -7 -3 -9 -3 -5 2 9 10 -46 46 -73 48 -10 1 -16 3
-14 5 7 8 -106 63 -116 57 -5 -4 -9 -1 -9 5 0 7 -7 9 -16 6 -8 -3 -13 -2 -10
2 7 12 -93 54 -107 46 -7 -4 -9 -4 -5 1 10 10 -102 57 -120 50 -7 -3 -11 -1
-8 4 7 11 -53 33 -67 24 -5 -3 -7 -1 -4 4 6 9 -33 24 -69 27 -6 1 -18 6 -25
12 -8 6 -25 14 -39 17 -14 3 -41 10 -60 15 -145 41 -192 52 -202 46 -6 -4 -8
-3 -5 3 4 6 -9 13 -31 17 -20 3 -50 9 -67 13 -16 4 -44 7 -62 7 -17 1 -29 4
-26 9 2 4 -8 7 -24 8 -15 0 -37 4 -48 8 -12 5 -26 4 -34 -3 -12 -9 -13 -8 -6
3 6 11 2 13 -19 9 -14 -3 -26 -1 -26 5 0 6 -2 8 -6 5 -3 -3 -21 -2 -40 2 -23
5 -34 4 -34 -4 0 -8 -2 -8 -8 0 -9 15 -61 24 -68 12 -4 -5 -10 -5 -17 0 -19
14 -54 20 -68 11 -7 -4 -18 -5 -24 -1 -17 11 -34 12 -273 18 -191 4 -232 3
-226 -8 6 -11 5 -11 -8 0 -12 9 -18 10 -23 2 -5 -8 -11 -8 -19 -1 -7 6 -15 9
-17 7z"/>
</g>
</svg>
